# xmcd
#
# Track frame offsets:
#	150
#	7029
#	32410
#	50411
#	69457
#	87181
#	95657
#	117869
#	122509
#	142920
#
# Disc length: 1989 seconds
#
# Revision: 1
# Processed by: cddbd v1.5.2PL0 Copyright (c) Steve Scherf et al.
# Submitted via: audiograbber 1.83.01
#
DISCID=7a07c30a
DTITLE=Schneider, Helge - Piano Fantasie No.4 [Box-Set] CD3
DYEAR=2012
DGENRE=Jazz
TTITLE0=Alkohol
TTITLE1=Clown
TTITLE2=Das Mörchen Lied 
TTITLE3=Reiten
TTITLE4=Das Universum
TTITLE5=Beim Zahnarzt - Live
TTITLE6=Das Kartenspiel - Live
TTITLE7=Pflaster - Live
TTITLE8=Titanic - Live
TTITLE9=Defektes Mikro - Live
EXTD=
EXTT0=
EXTT1=
EXTT2=
EXTT3=
EXTT4=
EXTT5=
EXTT6=
EXTT7=
EXTT8=
EXTT9=
PLAYORDER=
